<?xml version="1.0" standalone="no"?>
<!DOCTYPE svg PUBLIC "-//W3C//DTD SVG 20010904//EN"
 "http://www.w3.org/TR/2001/REC-SVG-20010904/DTD/svg10.dtd">
<svg version="1.0" xmlns="http://www.w3.org/2000/svg"
 width="512.000000pt" height="512.000000pt" viewBox="0 0 512.000000 512.000000"
 preserveAspectRatio="xMidYMid meet">
<metadata>
Created by potrace 1.14, written by Peter Selinger 2001-2017
</metadata>
<g transform="translate(0.000000,512.000000) scale(0.100000,-0.100000)"
fill="#000000" stroke="none">
<path d="M175 5107 c-53 -13 -146 -107 -163 -162 -9 -31 -11 -483 -9 -1975 l2
-1935 27 -47 c36 -59 91 -105 148 -122 35 -10 204 -13 798 -12 476 1 752 -3
752 -9 0 -5 -36 -82 -80 -171 l-81 -163 -170 0 c-197 -1 -242 -14 -305 -83
-49 -54 -67 -102 -67 -173 1 -98 44 -171 132 -223 l46 -27 1355 0 1355 0 47
28 c59 34 98 82 119 144 41 121 -15 249 -133 309 -26 13 -50 24 -53 24 -3 0
-81 0 -173 0 l-169 0 -81 161 c-45 88 -82 166 -82 172 0 9 182 12 768 12 848
1 798 -3 876 65 20 18 47 52 59 74 l22 41 0 1950 0 1950 -21 40 c-32 60 -70
96 -134 128 -33 16 -4723 21 -4785 4z"/>
</g>
</svg>
